<mxfile host="app.diagrams.net" modified="2024-04-23T03:43:35.351Z" agent="Mozilla/5.0 (Macintosh; Intel Mac OS X 10_15_7) AppleWebKit/537.36 (KHTML, like Gecko) Chrome/123.0.0.0 Safari/537.36" etag="o9WPEEJ4ura09af1t0sd" version="24.2.5" type="github">
  <diagram name="Page-1" id="LxZEAR8aVi3v_gLph3lQ">
    <mxGraphModel dx="954" dy="524" grid="1" gridSize="10" guides="1" tooltips="1" connect="1" arrows="1" fold="1" page="1" pageScale="1" pageWidth="850" pageHeight="1100" math="0" shadow="0">
      <root>
        <mxCell id="0" />
        <mxCell id="1" parent="0" />
        <mxCell id="zRi9cW8TndZPEBMclCF3-53" value="" style="rounded=0;whiteSpace=wrap;html=1;dashed=1;strokeWidth=2;fillColor=#f5f5f5;fontColor=#333333;strokeColor=#666666;" vertex="1" parent="1">
          <mxGeometry x="380" y="100" width="810" height="345" as="geometry" />
        </mxCell>
        <mxCell id="zRi9cW8TndZPEBMclCF3-15" style="rounded=0;orthogonalLoop=1;jettySize=auto;html=1;entryX=0;entryY=0.5;entryDx=0;entryDy=0;exitX=1;exitY=0;exitDx=0;exitDy=0;" edge="1" parent="1" source="zRi9cW8TndZPEBMclCF3-1" target="zRi9cW8TndZPEBMclCF3-9">
          <mxGeometry relative="1" as="geometry" />
        </mxCell>
        <mxCell id="zRi9cW8TndZPEBMclCF3-16" style="rounded=0;orthogonalLoop=1;jettySize=auto;html=1;entryX=0;entryY=0.5;entryDx=0;entryDy=0;exitX=1;exitY=1;exitDx=0;exitDy=0;" edge="1" parent="1" source="zRi9cW8TndZPEBMclCF3-1" target="zRi9cW8TndZPEBMclCF3-13">
          <mxGeometry relative="1" as="geometry" />
        </mxCell>
        <mxCell id="zRi9cW8TndZPEBMclCF3-17" value="grayId: app-1" style="edgeLabel;html=1;align=center;verticalAlign=middle;resizable=0;points=[];" vertex="1" connectable="0" parent="zRi9cW8TndZPEBMclCF3-16">
          <mxGeometry x="-0.1586" y="3" relative="1" as="geometry">
            <mxPoint y="-1" as="offset" />
          </mxGeometry>
        </mxCell>
        <mxCell id="zRi9cW8TndZPEBMclCF3-1" value="APIG" style="rounded=1;whiteSpace=wrap;html=1;" vertex="1" parent="1">
          <mxGeometry x="230" y="220" width="120" height="60" as="geometry" />
        </mxCell>
        <mxCell id="zRi9cW8TndZPEBMclCF3-5" style="rounded=0;orthogonalLoop=1;jettySize=auto;html=1;entryX=0;entryY=1;entryDx=0;entryDy=0;" edge="1" parent="1" source="zRi9cW8TndZPEBMclCF3-2" target="zRi9cW8TndZPEBMclCF3-1">
          <mxGeometry relative="1" as="geometry" />
        </mxCell>
        <mxCell id="zRi9cW8TndZPEBMclCF3-8" value="grayId: app-1" style="edgeLabel;html=1;align=center;verticalAlign=middle;resizable=0;points=[];" vertex="1" connectable="0" parent="zRi9cW8TndZPEBMclCF3-5">
          <mxGeometry x="-0.1431" y="4" relative="1" as="geometry">
            <mxPoint as="offset" />
          </mxGeometry>
        </mxCell>
        <mxCell id="zRi9cW8TndZPEBMclCF3-2" value="gray" style="html=1;verticalLabelPosition=bottom;align=center;labelBackgroundColor=#ffffff;verticalAlign=top;strokeWidth=2;strokeColor=#0080F0;shadow=0;dashed=0;shape=mxgraph.ios7.icons.smartphone;" vertex="1" parent="1">
          <mxGeometry x="90" y="320" width="40" height="70" as="geometry" />
        </mxCell>
        <mxCell id="zRi9cW8TndZPEBMclCF3-7" value="" style="rounded=0;orthogonalLoop=1;jettySize=auto;html=1;entryX=0;entryY=0;entryDx=0;entryDy=0;" edge="1" parent="1" source="zRi9cW8TndZPEBMclCF3-4" target="zRi9cW8TndZPEBMclCF3-1">
          <mxGeometry x="0.0023" relative="1" as="geometry">
            <mxPoint as="offset" />
          </mxGeometry>
        </mxCell>
        <mxCell id="zRi9cW8TndZPEBMclCF3-4" value="base" style="html=1;verticalLabelPosition=bottom;align=center;labelBackgroundColor=#ffffff;verticalAlign=top;strokeWidth=2;strokeColor=#0080F0;shadow=0;dashed=0;shape=mxgraph.ios7.icons.smartphone;" vertex="1" parent="1">
          <mxGeometry x="90" y="100" width="40" height="70" as="geometry" />
        </mxCell>
        <mxCell id="zRi9cW8TndZPEBMclCF3-21" style="rounded=0;orthogonalLoop=1;jettySize=auto;html=1;entryX=0;entryY=0;entryDx=0;entryDy=0;" edge="1" parent="1" source="zRi9cW8TndZPEBMclCF3-9" target="zRi9cW8TndZPEBMclCF3-11">
          <mxGeometry relative="1" as="geometry" />
        </mxCell>
        <mxCell id="zRi9cW8TndZPEBMclCF3-9" value="支付中心V1" style="whiteSpace=wrap;html=1;rounded=1;fillColor=#60a917;strokeColor=#2D7600;fontColor=#ffffff;" vertex="1" parent="1">
          <mxGeometry x="411.51" y="130" width="120" height="60" as="geometry" />
        </mxCell>
        <mxCell id="zRi9cW8TndZPEBMclCF3-11" value="RocketMQ" style="whiteSpace=wrap;html=1;rounded=1;fillColor=#fa6800;strokeColor=#C73500;fontColor=#000000;" vertex="1" parent="1">
          <mxGeometry x="603" y="220" width="120" height="60" as="geometry" />
        </mxCell>
        <mxCell id="zRi9cW8TndZPEBMclCF3-23" style="rounded=0;orthogonalLoop=1;jettySize=auto;html=1;entryX=1;entryY=0;entryDx=0;entryDy=0;" edge="1" parent="1" source="zRi9cW8TndZPEBMclCF3-12" target="zRi9cW8TndZPEBMclCF3-11">
          <mxGeometry relative="1" as="geometry" />
        </mxCell>
        <mxCell id="zRi9cW8TndZPEBMclCF3-28" style="edgeStyle=orthogonalEdgeStyle;rounded=0;orthogonalLoop=1;jettySize=auto;html=1;" edge="1" parent="1" source="zRi9cW8TndZPEBMclCF3-12" target="zRi9cW8TndZPEBMclCF3-19">
          <mxGeometry relative="1" as="geometry" />
        </mxCell>
        <mxCell id="zRi9cW8TndZPEBMclCF3-12" value="卡劵中心V1" style="whiteSpace=wrap;html=1;rounded=1;fillColor=#60a917;strokeColor=#2D7600;fontColor=#ffffff;" vertex="1" parent="1">
          <mxGeometry x="819" y="125" width="120" height="60" as="geometry" />
        </mxCell>
        <mxCell id="zRi9cW8TndZPEBMclCF3-18" style="rounded=0;orthogonalLoop=1;jettySize=auto;html=1;exitX=1;exitY=0;exitDx=0;exitDy=0;" edge="1" parent="1" source="zRi9cW8TndZPEBMclCF3-13">
          <mxGeometry relative="1" as="geometry">
            <mxPoint x="580" y="340" as="sourcePoint" />
            <mxPoint x="600" y="280" as="targetPoint" />
          </mxGeometry>
        </mxCell>
        <mxCell id="zRi9cW8TndZPEBMclCF3-22" value="grayId: app-1" style="edgeLabel;html=1;align=center;verticalAlign=middle;resizable=0;points=[];" vertex="1" connectable="0" parent="zRi9cW8TndZPEBMclCF3-18">
          <mxGeometry x="0.2" relative="1" as="geometry">
            <mxPoint x="-17" as="offset" />
          </mxGeometry>
        </mxCell>
        <mxCell id="zRi9cW8TndZPEBMclCF3-13" value="支付中心V2" style="whiteSpace=wrap;html=1;rounded=1;fillColor=#d80073;strokeColor=#A50040;fontColor=#ffffff;" vertex="1" parent="1">
          <mxGeometry x="411.51" y="315" width="120" height="60" as="geometry" />
        </mxCell>
        <mxCell id="zRi9cW8TndZPEBMclCF3-24" value="grayId: app-1" style="rounded=0;orthogonalLoop=1;jettySize=auto;html=1;entryX=1;entryY=1;entryDx=0;entryDy=0;" edge="1" parent="1" source="zRi9cW8TndZPEBMclCF3-14" target="zRi9cW8TndZPEBMclCF3-11">
          <mxGeometry relative="1" as="geometry" />
        </mxCell>
        <mxCell id="zRi9cW8TndZPEBMclCF3-26" value="grayId: app-1" style="edgeStyle=orthogonalEdgeStyle;rounded=0;orthogonalLoop=1;jettySize=auto;html=1;" edge="1" parent="1" source="zRi9cW8TndZPEBMclCF3-14" target="zRi9cW8TndZPEBMclCF3-25">
          <mxGeometry relative="1" as="geometry" />
        </mxCell>
        <mxCell id="zRi9cW8TndZPEBMclCF3-14" value="卡劵中心V2" style="whiteSpace=wrap;html=1;rounded=1;fillColor=#d80073;strokeColor=#A50040;fontColor=#ffffff;" vertex="1" parent="1">
          <mxGeometry x="819" y="255" width="120" height="60" as="geometry" />
        </mxCell>
        <mxCell id="zRi9cW8TndZPEBMclCF3-19" value="会员中心V1" style="whiteSpace=wrap;html=1;rounded=1;fillColor=#60a917;strokeColor=#2D7600;fontColor=#ffffff;" vertex="1" parent="1">
          <mxGeometry x="1034" y="125" width="120" height="60" as="geometry" />
        </mxCell>
        <mxCell id="zRi9cW8TndZPEBMclCF3-25" value="会员中心V2" style="whiteSpace=wrap;html=1;rounded=1;fillColor=#d80073;strokeColor=#A50040;fontColor=#ffffff;" vertex="1" parent="1">
          <mxGeometry x="1034" y="255" width="120" height="60" as="geometry" />
        </mxCell>
        <mxCell id="zRi9cW8TndZPEBMclCF3-36" style="rounded=0;orthogonalLoop=1;jettySize=auto;html=1;entryX=1;entryY=1;entryDx=0;entryDy=0;exitX=0;exitY=0;exitDx=0;exitDy=0;" edge="1" parent="1" source="zRi9cW8TndZPEBMclCF3-35" target="zRi9cW8TndZPEBMclCF3-11">
          <mxGeometry relative="1" as="geometry" />
        </mxCell>
        <mxCell id="zRi9cW8TndZPEBMclCF3-39" value="grayId: app-1" style="edgeLabel;html=1;align=center;verticalAlign=middle;resizable=0;points=[];" vertex="1" connectable="0" parent="zRi9cW8TndZPEBMclCF3-36">
          <mxGeometry x="-0.05" y="2" relative="1" as="geometry">
            <mxPoint as="offset" />
          </mxGeometry>
        </mxCell>
        <mxCell id="zRi9cW8TndZPEBMclCF3-37" style="rounded=0;orthogonalLoop=1;jettySize=auto;html=1;entryX=0;entryY=1;entryDx=0;entryDy=0;" edge="1" parent="1" source="zRi9cW8TndZPEBMclCF3-35" target="zRi9cW8TndZPEBMclCF3-25">
          <mxGeometry relative="1" as="geometry" />
        </mxCell>
        <mxCell id="zRi9cW8TndZPEBMclCF3-38" value="grayId: app-1" style="edgeLabel;html=1;align=center;verticalAlign=middle;resizable=0;points=[];" vertex="1" connectable="0" parent="zRi9cW8TndZPEBMclCF3-37">
          <mxGeometry x="-0.1797" y="-3" relative="1" as="geometry">
            <mxPoint as="offset" />
          </mxGeometry>
        </mxCell>
        <mxCell id="zRi9cW8TndZPEBMclCF3-35" value="消息中心V1" style="whiteSpace=wrap;html=1;rounded=1;fillColor=#60a917;fontColor=#ffffff;strokeColor=#2D7600;" vertex="1" parent="1">
          <mxGeometry x="819" y="375" width="120" height="60" as="geometry" />
        </mxCell>
        <mxCell id="zRi9cW8TndZPEBMclCF3-54" value="Sermant 标签路由，消息隔离" style="rounded=1;whiteSpace=wrap;html=1;fillColor=#647687;fontColor=#ffffff;strokeColor=#314354;" vertex="1" parent="1">
          <mxGeometry x="380" y="21" width="810" height="40" as="geometry" />
        </mxCell>
        <mxCell id="zRi9cW8TndZPEBMclCF3-57" value="" style="shape=flexArrow;endArrow=classic;html=1;rounded=0;entryX=0.193;entryY=0;entryDx=0;entryDy=0;entryPerimeter=0;fillColor=#f5f5f5;strokeColor=#666666;exitX=0.186;exitY=0.975;exitDx=0;exitDy=0;exitPerimeter=0;" edge="1" parent="1" source="zRi9cW8TndZPEBMclCF3-54">
          <mxGeometry width="50" height="50" relative="1" as="geometry">
            <mxPoint x="535" y="60" as="sourcePoint" />
            <mxPoint x="530.3299999999999" y="97" as="targetPoint" />
          </mxGeometry>
        </mxCell>
        <mxCell id="zRi9cW8TndZPEBMclCF3-58" value="" style="shape=flexArrow;endArrow=classic;html=1;rounded=0;entryX=0.193;entryY=0;entryDx=0;entryDy=0;entryPerimeter=0;fillColor=#f5f5f5;strokeColor=#666666;" edge="1" parent="1">
          <mxGeometry width="50" height="50" relative="1" as="geometry">
            <mxPoint x="1050" y="60" as="sourcePoint" />
            <mxPoint x="1050" y="100" as="targetPoint" />
          </mxGeometry>
        </mxCell>
        <mxCell id="zRi9cW8TndZPEBMclCF3-60" value="CSE 配置下发" style="rounded=1;whiteSpace=wrap;html=1;fillColor=#76608a;fontColor=#ffffff;strokeColor=#432D57;" vertex="1" parent="1">
          <mxGeometry x="390" y="480" width="800" height="40" as="geometry" />
        </mxCell>
        <mxCell id="zRi9cW8TndZPEBMclCF3-62" value="" style="shape=flexArrow;endArrow=classic;html=1;rounded=0;entryX=0.199;entryY=1;entryDx=0;entryDy=0;entryPerimeter=0;fillColor=#f5f5f5;strokeColor=#666666;" edge="1" parent="1" target="zRi9cW8TndZPEBMclCF3-53">
          <mxGeometry width="50" height="50" relative="1" as="geometry">
            <mxPoint x="540" y="480" as="sourcePoint" />
            <mxPoint x="590" y="430" as="targetPoint" />
          </mxGeometry>
        </mxCell>
        <mxCell id="zRi9cW8TndZPEBMclCF3-64" value="" style="shape=flexArrow;endArrow=classic;html=1;rounded=0;entryX=0.863;entryY=0.997;entryDx=0;entryDy=0;entryPerimeter=0;fillColor=#f5f5f5;strokeColor=#666666;" edge="1" parent="1">
          <mxGeometry width="50" height="50" relative="1" as="geometry">
            <mxPoint x="1057" y="480" as="sourcePoint" />
            <mxPoint x="1057.03" y="443.9649999999999" as="targetPoint" />
          </mxGeometry>
        </mxCell>
      </root>
    </mxGraphModel>
  </diagram>
</mxfile>
